<svg id="Layer_1" data-name="Layer 1" xmlns="http://www.w3.org/2000/svg" viewBox="0 0 162.47 151.22"><defs><style>.cls-1{fill:#a51e22;}.cls-2{fill:#e6a843;}</style></defs><title>logo</title><path id="upper_part_logo" class="cls-1" d="M288.84,453s28.88-34,54.63-48.84c0,0,2.87-27,4.49-27,0,0-7.89.76-10.74,4.49l-13.93-22.51-13,21.76-11.6-5.82,6.57,40.06L286.51,396l-1.87,9.9-20.3-3.75,3.82,23-6.78,2.59Z" transform="translate(-261.38 -354.96)"/><path id="aeroplane" class="cls-2" d="M282.82,468.25s11.36-3.16,15.61-2.67c0,0,22.32-41.28,73.88-75.46v9.29L377,388.54l15.51-7.11,8.4,27,3.45-32.7,17-11.46s6.62-4.84-1.48-3.25l-18.47,8.19L371.72,355l17.78,21-13.34,9L364,383.6l7.31,4.75S299.91,429.73,282.82,468.25Z" transform="translate(-261.38 -354.96)"/><path id="bottom_part_logo" class="cls-1" d="M303,464.43s34.37-2.37,56.76,1.71l-3-10.53s-.79-3.29,2-3.16l26-24.1s3.16-1.32-1.85-3l-2.63-1.05s-1.32.39-1.32-3.17l3-19.09-17.64,2.5-1.19-3.16s-.26-2.37-2.63,0C360.43,401.35,318.28,436.78,303,464.43Z" transform="translate(-261.38 -354.96)"/><path class="cls-1" d="M285,471.65h7a14.73,14.73,0,0,1,4.69.66,8.26,8.26,0,0,1,3.55,2.47q4.16,4.62,4.15,14a35.5,35.5,0,0,1-.41,5.68,20.2,20.2,0,0,1-1.29,4.62,14.24,14.24,0,0,1-2.23,3.69,9.3,9.3,0,0,1-2.34,2,8.76,8.76,0,0,1-2.72,1.06,15.79,15.79,0,0,1-3.29.31h-7a3.58,3.58,0,0,1-2.21-.58,2.67,2.67,0,0,1-1-1.62,13.41,13.41,0,0,1-.23-2.73V475.94a5.38,5.38,0,0,1,.78-3.27A3,3,0,0,1,285,471.65Zm2.09,5.54v23.43h4.07a19.07,19.07,0,0,0,2.11-.09,5.22,5.22,0,0,0,1.57-.48,4.11,4.11,0,0,0,1.42-1.06q2.7-3,2.7-10.22a18.91,18.91,0,0,0-1.19-7.65,5.92,5.92,0,0,0-2.93-3.24,11.4,11.4,0,0,0-4.2-.69Z" transform="translate(-261.38 -354.96)"/><path class="cls-1" d="M310.69,484.09h-1v4.29a1.73,1.73,0,0,1-.38,1.25,1.44,1.44,0,0,1-2,0,1.84,1.84,0,0,1-.36-1.23V478.11a1.71,1.71,0,0,1,.4-1.27,1.78,1.78,0,0,1,1.29-.39h4.48a14,14,0,0,1,1.58.08,4.24,4.24,0,0,1,1.19.31,3.36,3.36,0,0,1,1.13.76,3.33,3.33,0,0,1,.75,1.14,3.8,3.8,0,0,1,.26,1.38,3.32,3.32,0,0,1-.86,2.39,5,5,0,0,1-2.61,1.26A5.15,5.15,0,0,1,316,484.9a12.19,12.19,0,0,1,1.19,1.59A11,11,0,0,1,318,488a2.91,2.91,0,0,1,.3.94,1,1,0,0,1-.17.52,1.33,1.33,0,0,1-.47.41,1.52,1.52,0,0,1-.69.15,1.31,1.31,0,0,1-.78-.22,2,2,0,0,1-.54-.54c-.15-.22-.36-.54-.62-1l-1.1-1.81a9.89,9.89,0,0,0-1.07-1.51,2.71,2.71,0,0,0-1-.71A3.45,3.45,0,0,0,310.69,484.09Zm1.58-5.61h-2.55v3.67h2.47a6.65,6.65,0,0,0,1.67-.17,2,2,0,0,0,1-.57,1.9,1.9,0,0,0,.07-2.09,1.75,1.75,0,0,0-.8-.64A6,6,0,0,0,312.27,478.48Z" transform="translate(-261.38 -354.96)"/><path class="cls-1" d="M329.55,478.54h-6.21v3.27h5.72a1.41,1.41,0,0,1,.94.28.94.94,0,0,1,.31.74,1,1,0,0,1-.31.74,1.34,1.34,0,0,1-.94.28h-5.72v3.8h6.42a1.4,1.4,0,0,1,1,.3,1,1,0,0,1,.33.79,1,1,0,0,1-.33.77,1.45,1.45,0,0,1-1,.29h-7.49a1.79,1.79,0,0,1-1.29-.39,1.74,1.74,0,0,1-.39-1.27v-10a2.15,2.15,0,0,1,.17-.95,1.07,1.07,0,0,1,.55-.54,2.43,2.43,0,0,1,1-.17h7.28a1.45,1.45,0,0,1,1,.29,1.05,1.05,0,0,1,0,1.51A1.45,1.45,0,0,1,329.55,478.54Z" transform="translate(-261.38 -354.96)"/><path class="cls-1" d="M342.22,488.29l-.65-1.68H336l-.65,1.72a6.53,6.53,0,0,1-.65,1.35,1,1,0,0,1-.88.35,1.33,1.33,0,0,1-.92-.37,1.14,1.14,0,0,1-.4-.85,2,2,0,0,1,.09-.57c.06-.19.17-.46.31-.81l3.48-8.67.36-.89a3.91,3.91,0,0,1,.44-.87,1.85,1.85,0,0,1,.62-.56,1.88,1.88,0,0,1,1-.22,1.84,1.84,0,0,1,1,.22,1.77,1.77,0,0,1,.63.55,3.56,3.56,0,0,1,.39.72c.11.26.25.61.42,1l3.55,8.61a4.26,4.26,0,0,1,.42,1.43,1.15,1.15,0,0,1-.4.85,1.3,1.3,0,0,1-.95.39,1.31,1.31,0,0,1-.55-.11,1.1,1.1,0,0,1-.39-.31,2.7,2.7,0,0,1-.34-.61C342.41,488.73,342.3,488.5,342.22,488.29Zm-5.46-3.71h4.06l-2.05-5.51Z" transform="translate(-261.38 -354.96)"/><path class="cls-1" d="M351.68,487.79l-2.18-8.51v9.22a1.63,1.63,0,0,1-.35,1.15,1.29,1.29,0,0,1-1.83,0,1.65,1.65,0,0,1-.35-1.15V477.94a1.3,1.3,0,0,1,.46-1.18,2.22,2.22,0,0,1,1.26-.31h.85a3.34,3.34,0,0,1,1.12.14.91.91,0,0,1,.51.49,7.42,7.42,0,0,1,.38,1.16l2,7.31,2-7.31a7.2,7.2,0,0,1,.39-1.16.91.91,0,0,1,.51-.49,3.3,3.3,0,0,1,1.12-.14h.85a2.16,2.16,0,0,1,1.25.31,1.3,1.3,0,0,1,.47,1.18V488.5a1.68,1.68,0,0,1-.35,1.15,1.21,1.21,0,0,1-.93.38,1.17,1.17,0,0,1-.9-.38,1.63,1.63,0,0,1-.35-1.15v-9.22l-2.18,8.51c-.15.55-.26,1-.35,1.21a1.69,1.69,0,0,1-.5.71,1.46,1.46,0,0,1-1,.32,1.5,1.5,0,0,1-1.34-.73,3,3,0,0,1-.29-.71C351.83,488.34,351.76,488.07,351.68,487.79Z" transform="translate(-261.38 -354.96)"/><path class="cls-2" d="M323.58,499.79a3,3,0,0,1-.51,1.72,3.37,3.37,0,0,1-1.48,1.2,5.55,5.55,0,0,1-2.3.44,5.26,5.26,0,0,1-2.64-.6,3.33,3.33,0,0,1-1.19-1.14A2.5,2.5,0,0,1,315,500a.94.94,0,0,1,.27-.67,1,1,0,0,1,.71-.28.85.85,0,0,1,.58.22,1.73,1.73,0,0,1,.41.64,4.45,4.45,0,0,0,.45.85,1.78,1.78,0,0,0,.67.56,2.49,2.49,0,0,0,1.14.22,2.64,2.64,0,0,0,1.58-.44,1.33,1.33,0,0,0,.61-1.11,1.15,1.15,0,0,0-.33-.86,2,2,0,0,0-.85-.5,13.45,13.45,0,0,0-1.38-.37,10.17,10.17,0,0,1-1.95-.63,3.13,3.13,0,0,1-1.25-1,2.54,2.54,0,0,1-.46-1.54,2.62,2.62,0,0,1,.49-1.55,3,3,0,0,1,1.41-1,5.68,5.68,0,0,1,2.16-.37,5.49,5.49,0,0,1,1.72.24,3.61,3.61,0,0,1,1.2.65,2.45,2.45,0,0,1,.7.84,1.86,1.86,0,0,1,.22.86,1,1,0,0,1-.27.69.92.92,0,0,1-.69.3.81.81,0,0,1-.57-.18,2.34,2.34,0,0,1-.42-.6,2.94,2.94,0,0,0-.71-.94,2.15,2.15,0,0,0-1.33-.33,2.33,2.33,0,0,0-1.36.36,1.05,1.05,0,0,0-.52.88.89.89,0,0,0,.18.55,1.46,1.46,0,0,0,.48.39,2.8,2.8,0,0,0,.63.26c.21.07.56.16,1,.28a17,17,0,0,1,1.66.46,5,5,0,0,1,1.25.62,2.44,2.44,0,0,1,.81.91A2.82,2.82,0,0,1,323.58,499.79Z" transform="translate(-261.38 -354.96)"/><path class="cls-2" d="M332.34,494.14H330v7.7a1.39,1.39,0,0,1-.3,1,1,1,0,0,1-.78.33,1,1,0,0,1-.79-.33,1.4,1.4,0,0,1-.3-1v-7.7h-2.39a1.23,1.23,0,0,1-.83-.24.82.82,0,0,1-.27-.64.81.81,0,0,1,.28-.65,1.23,1.23,0,0,1,.82-.24h6.95a1.19,1.19,0,0,1,.84.25.87.87,0,0,1,0,1.28A1.28,1.28,0,0,1,332.34,494.14Z" transform="translate(-261.38 -354.96)"/><path class="cls-2" d="M334.84,501.84v-8.35a1.37,1.37,0,0,1,.3-1,1,1,0,0,1,.79-.33,1.05,1.05,0,0,1,.79.32,1.36,1.36,0,0,1,.31,1v8.35a1.36,1.36,0,0,1-.31,1,1,1,0,0,1-.79.33,1,1,0,0,1-.78-.33A1.42,1.42,0,0,1,334.84,501.84Z" transform="translate(-261.38 -354.96)"/><path class="cls-2" d="M342.28,493.48l4.2,6.24v-6.3a1.35,1.35,0,0,1,.27-.92.9.9,0,0,1,.73-.31.92.92,0,0,1,.74.31,1.35,1.35,0,0,1,.27.92v8.33c0,.93-.39,1.4-1.17,1.4a1.44,1.44,0,0,1-.53-.09,1.29,1.29,0,0,1-.45-.26,3.13,3.13,0,0,1-.38-.42l-.35-.5-4.1-6.17v6.21a1.29,1.29,0,0,1-.29.91,1,1,0,0,1-.74.32,1,1,0,0,1-.74-.32,1.31,1.31,0,0,1-.28-.91v-8.18a2.23,2.23,0,0,1,.12-.81,1.13,1.13,0,0,1,.46-.53,1.27,1.27,0,0,1,.7-.21,1.29,1.29,0,0,1,.51.09,1.19,1.19,0,0,1,.36.26,2.1,2.1,0,0,1,.33.41Z" transform="translate(-261.38 -354.96)"/><path class="cls-2" d="M357.66,501.77l-.51-1.33h-4.39l-.51,1.35a5.44,5.44,0,0,1-.52,1.08.83.83,0,0,1-.7.28,1,1,0,0,1-.73-.3.9.9,0,0,1-.31-.67,1.41,1.41,0,0,1,.07-.45c.05-.16.13-.37.24-.64l2.76-6.88.29-.71a4.14,4.14,0,0,1,.35-.7,1.48,1.48,0,0,1,.49-.44,1.61,1.61,0,0,1,.76-.17,1.58,1.58,0,0,1,.76.17,1.39,1.39,0,0,1,.49.44,3.2,3.2,0,0,1,.32.57c.09.21.2.48.33.82l2.82,6.84a3.42,3.42,0,0,1,.33,1.13,1,1,0,0,1-.31.68,1.07,1.07,0,0,1-.76.31,1,1,0,0,1-.44-.09,1.1,1.1,0,0,1-.31-.25,2.39,2.39,0,0,1-.27-.48Zm-4.32-2.95h3.22l-1.63-4.37Z" transform="translate(-261.38 -354.96)"/><path class="cls-2" d="M367.36,494.14H365v7.7a1.39,1.39,0,0,1-.3,1,1,1,0,0,1-.78.33,1,1,0,0,1-.79-.33,1.4,1.4,0,0,1-.31-1v-7.7h-2.38a1.23,1.23,0,0,1-.83-.24.8.8,0,0,1-.28-.64.81.81,0,0,1,.29-.65,1.23,1.23,0,0,1,.82-.24h6.95a1.19,1.19,0,0,1,.84.25.8.8,0,0,1,.28.64.83.83,0,0,1-.28.64A1.28,1.28,0,0,1,367.36,494.14Z" transform="translate(-261.38 -354.96)"/><path class="cls-2" d="M369.86,501.84v-8.35a1.37,1.37,0,0,1,.3-1,1,1,0,0,1,.78-.33,1.06,1.06,0,0,1,.8.32,1.36,1.36,0,0,1,.31,1v8.35a1.36,1.36,0,0,1-.31,1,1,1,0,0,1-.8.33,1,1,0,0,1-.77-.33A1.37,1.37,0,0,1,369.86,501.84Z" transform="translate(-261.38 -354.96)"/><path class="cls-2" d="M379.2,492.19a5.79,5.79,0,0,1,2.88.67,4.34,4.34,0,0,1,1.82,1.9,6.41,6.41,0,0,1,.62,2.89,6.88,6.88,0,0,1-.34,2.24,4.72,4.72,0,0,1-1,1.74,4.54,4.54,0,0,1-1.67,1.13,6.12,6.12,0,0,1-2.26.39,6,6,0,0,1-2.27-.41,4.45,4.45,0,0,1-1.67-1.13,4.88,4.88,0,0,1-1-1.75,7,7,0,0,1-.34-2.22,6.7,6.7,0,0,1,.36-2.24,4.61,4.61,0,0,1,1-1.73,4.39,4.39,0,0,1,1.65-1.1A6.09,6.09,0,0,1,379.2,492.19Zm3.1,5.45a4.82,4.82,0,0,0-.38-2,2.79,2.79,0,0,0-1.09-1.29,3.08,3.08,0,0,0-1.63-.43,3,3,0,0,0-1.21.24,2.65,2.65,0,0,0-1,.7,3.23,3.23,0,0,0-.63,1.18,5.11,5.11,0,0,0-.24,1.62,5.17,5.17,0,0,0,.24,1.63,3.25,3.25,0,0,0,.65,1.21,2.79,2.79,0,0,0,1,.72,3.13,3.13,0,0,0,2.75-.17,2.92,2.92,0,0,0,1.12-1.27A4.83,4.83,0,0,0,382.3,497.64Z" transform="translate(-261.38 -354.96)"/><path class="cls-2" d="M389.24,493.48l4.2,6.24v-6.3a1.35,1.35,0,0,1,.27-.92.9.9,0,0,1,.73-.31.92.92,0,0,1,.74.31,1.35,1.35,0,0,1,.27.92v8.33c0,.93-.39,1.4-1.17,1.4a1.44,1.44,0,0,1-.53-.09,1.29,1.29,0,0,1-.45-.26,3.13,3.13,0,0,1-.38-.42l-.35-.5-4.1-6.17v6.21a1.29,1.29,0,0,1-.29.91,1,1,0,0,1-.74.32,1,1,0,0,1-.74-.32,1.31,1.31,0,0,1-.28-.91v-8.18a2.23,2.23,0,0,1,.12-.81,1.13,1.13,0,0,1,.46-.53,1.27,1.27,0,0,1,.7-.21,1.29,1.29,0,0,1,.51.09,1.19,1.19,0,0,1,.36.26,2.1,2.1,0,0,1,.33.41Z" transform="translate(-261.38 -354.96)"/><path class="cls-2" d="M312.7,494h-4.92v2.6h4.53a1.07,1.07,0,0,1,.75.22.81.81,0,0,1,0,1.17,1.07,1.07,0,0,1-.75.23h-4.53v3h5.09a1.17,1.17,0,0,1,.78.23.83.83,0,0,1,.26.63.8.8,0,0,1-.26.61,1.12,1.12,0,0,1-.78.24h-5.94a1.41,1.41,0,0,1-1-.32,1.35,1.35,0,0,1-.31-1v-8a1.84,1.84,0,0,1,.14-.76.88.88,0,0,1,.44-.43,2,2,0,0,1,.76-.13h5.77a1.15,1.15,0,0,1,.78.23.84.84,0,0,1,0,1.2A1.15,1.15,0,0,1,312.7,494Z" transform="translate(-261.38 -354.96)"/></svg>